<svg xmlns="http://www.w3.org/2000/svg" width="500" height="500" viewBox="0 0 500 500" version="1.1"><path d="M 10 251 L 10 491 250 491 L 490 491 490 251 L 490 11 250 11 L 10 11 10 251 M 11 251 L 11 490 250 490 L 489 490 489 251 L 489 12 250 12 L 11 12 11 251 M 248.748 16.750 L 481.996 17.004 482.250 250.252 L 482.504 483.500 482.752 249.750 L 483 16 249.250 16.248 L 15.500 16.496 248.748 16.750 M 222 43.622 C 202.479 46.256, 181.176 52.870, 163.370 61.825 C 130.195 78.511, 102.269 105.003, 84.127 137 C 78.823 146.356, 70 165.788, 70 168.116 C 70 168.602, 72.925 169, 76.500 169 C 80.612 169, 83 168.591, 83 167.885 C 83 165.655, 91.079 148.645, 96.159 140.181 C 110.931 115.567, 133.080 93.247, 157 78.870 C 184.063 62.604, 215.422 54.013, 247.761 54.004 C 310.812 53.987, 366.626 85.840, 399.610 140.664 C 402.974 146.254, 407.457 154.916, 409.573 159.914 L 413.420 169 419.696 169 L 425.972 169 423.841 163.250 C 410.625 127.596, 385.087 95.766, 351.373 72.932 C 335.528 62.201, 314.912 53.101, 294 47.610 C 273.564 42.243, 244.254 40.620, 222 43.622 M 234 66.529 C 233.175 66.692, 228.450 67.363, 223.500 68.020 C 200.740 71.040, 177.442 80.117, 156.294 94.202 C 143.223 102.907, 123.533 122.180, 114.297 135.308 C 109.153 142.619, 96 166.425, 96 168.424 C 96 168.741, 97.013 168.998, 98.250 168.996 C 99.964 168.993, 100.928 167.953, 102.297 164.623 C 105.151 157.682, 113.718 143.162, 119.775 135 C 131.560 119.120, 149.335 103.074, 166.696 92.644 C 206.157 68.935, 254.809 63.792, 299 78.658 C 312.287 83.127, 329.826 92.160, 341.768 100.684 C 362.629 115.574, 382.321 139.215, 392.632 161.750 C 395.210 167.383, 396.416 169, 398.042 169 C 400.787 169, 400.304 167.455, 393.334 153.935 C 365.672 100.277, 307.834 65.516, 247.216 66.116 C 240.772 66.180, 234.825 66.366, 234 66.529 M 216.701 126.632 C 215.365 127.969, 216.008 131.789, 217.678 132.430 C 220.173 133.387, 222.768 130.441, 221.376 128.231 C 220.184 126.338, 217.808 125.525, 216.701 126.632 M 217.688 127.646 C 216.272 129.061, 217.073 131, 219.073 131 C 220.471 131, 221.041 130.457, 220.823 129.333 C 220.466 127.492, 218.759 126.574, 217.688 127.646 M 199.389 130.430 C 198.393 133.025, 199.788 135.169, 202.246 134.820 C 203.898 134.585, 204.500 133.833, 204.500 132 C 204.500 130.167, 203.898 129.415, 202.246 129.180 C 200.893 128.988, 199.750 129.488, 199.389 130.430 M 232.503 130.991 C 231.703 133.512, 232.606 135, 234.937 135 C 237.746 135, 239.544 132.360, 238 130.500 C 236.236 128.374, 233.249 128.641, 232.503 130.991 M 200.500 131 C 199.663 132.354, 200.792 134, 202.559 134 C 203.352 134, 204 133.100, 204 132 C 204 129.930, 201.587 129.240, 200.500 131 M 233.500 131 C 232.663 132.354, 233.792 134, 235.559 134 C 236.352 134, 237 133.100, 237 132 C 237 129.930, 234.587 129.240, 233.500 131 M 206.205 135.466 C 205.138 136.822, 204.034 137.701, 203.751 137.417 C 202.629 136.296, 197.797 138.380, 196.330 140.618 C 193.976 144.212, 195.369 149.113, 200.284 154.521 C 204.215 158.846, 204.690 159.086, 207.315 158.080 C 210.893 156.708, 225.418 156.677, 230.007 158.031 C 233.366 159.023, 233.644 158.899, 237.250 154.781 C 242.294 149.023, 243.700 144.718, 241.590 141.497 C 239.806 138.774, 236.610 136.772, 234.733 137.203 C 234.049 137.360, 232.479 136.479, 231.244 135.244 C 228.756 132.756, 224.552 132.336, 220.520 134.173 C 218.551 135.070, 217.670 135.070, 216.773 134.173 C 216.128 133.528, 213.923 133, 211.873 133 C 209.101 133, 207.648 133.633, 206.205 135.466 M 207.655 135.829 C 205.221 138.518, 205.625 142.704, 209.008 149.854 C 211.265 154.626, 212.406 156.058, 213.589 155.604 C 214.455 155.272, 215.802 155, 216.582 155 C 217.706 155, 218 153.039, 218 145.535 C 218 137.201, 217.769 135.947, 216.066 135.035 C 213.114 133.455, 209.494 133.797, 207.655 135.829 M 221.750 135.080 C 220.279 135.937, 220 137.604, 220 145.550 C 220 153.041, 220.294 155, 221.418 155 C 222.198 155, 223.458 155.238, 224.217 155.530 C 225.952 156.196, 229.412 150.224, 231.041 143.754 C 232.065 139.685, 232.001 138.651, 230.595 136.504 C 228.843 133.831, 224.967 133.207, 221.750 135.080 M 197.413 141.493 C 195.247 144.799, 196.162 148.066, 200.642 153.025 C 204.185 156.947, 206.271 157.749, 208.783 156.155 C 209.784 155.520, 209.511 154.150, 207.543 149.921 C 206.155 146.939, 205.015 143.262, 205.010 141.750 C 205.001 139.368, 204.602 139, 202.023 139 C 199.953 139, 198.548 139.760, 197.413 141.493 M 232.699 142.470 C 232.389 144.378, 231.016 148.169, 229.647 150.893 C 227.035 156.095, 227.368 157, 231.895 157 C 235.425 157, 241 149.204, 241 144.266 C 241 140.687, 239.376 139, 235.931 139 C 233.660 139, 233.178 139.517, 232.699 142.470 M 213.351 160.015 C 203.332 161.459, 204.261 163.633, 215.340 164.667 C 221.928 165.282, 232.438 163.518, 231.474 161.959 C 231.188 161.495, 228.826 160.827, 226.227 160.474 C 223.627 160.121, 220.825 159.706, 220 159.552 C 219.175 159.399, 216.183 159.607, 213.351 160.015 M 210.167 161.875 C 208.164 163.145, 218.027 164.198, 224.224 163.376 C 228.146 162.856, 228.956 162.491, 227.474 161.912 C 224.778 160.858, 211.814 160.831, 210.167 161.875 M 188.460 172.064 C 183.985 173.366, 178.235 178.716, 171.483 187.861 L 165.500 195.965 165.226 186.232 C 164.905 174.848, 164.298 174, 156.468 174 C 141.450 174, 130.075 183.525, 133.943 192.862 C 136.447 198.907, 145.406 199.474, 147.431 193.716 C 148.187 191.565, 148.035 190.606, 146.728 189.300 C 145.300 187.871, 144.708 187.819, 142.625 188.933 C 139.616 190.543, 138 189.656, 138 186.393 C 138 183.262, 142.154 179.328, 146.819 178.039 C 152.931 176.352, 152.937 176.377, 153.233 204.822 L 153.500 230.426 156.719 231.349 C 159.189 232.057, 160.519 231.890, 162.440 230.631 C 164.881 229.032, 164.951 228.653, 165.222 215.493 C 165.375 208.068, 165.857 201.883, 166.293 201.747 C 166.729 201.611, 169.024 206.061, 171.392 211.635 C 179.024 229.594, 184.950 238.427, 191.684 241.880 C 194.919 243.539, 202.546 243.239, 206.782 241.287 L 210.500 239.573 206.280 239.231 C 202.780 238.946, 201.461 238.188, 198.551 234.788 C 194.559 230.125, 188.569 218.887, 180.540 201 L 175.017 188.695 179.608 183.322 C 182.133 180.367, 185.504 177.274, 187.099 176.449 C 189.691 175.108, 190.323 175.116, 193.029 176.515 C 194.696 177.377, 196.496 177.812, 197.029 177.482 C 198.687 176.458, 198.097 173.122, 196.066 172.035 C 193.833 170.840, 192.654 170.845, 188.460 172.064 M 294.604 173.038 C 290.524 174.259, 286.162 178.758, 284.999 182.943 C 284.456 184.899, 283.970 192.575, 283.920 200 L 283.830 213.500 275.073 195.500 C 270.258 185.600, 265.533 176.851, 264.575 176.058 C 262.178 174.074, 251.902 173.488, 246.425 175.021 C 237.823 177.429, 232.182 186.196, 234.943 192.862 C 237.447 198.907, 246.406 199.474, 248.431 193.716 C 249.768 189.915, 247.288 187.240, 244.039 188.979 C 238.539 191.923, 236.822 185.010, 241.976 180.674 C 245.549 177.667, 250.713 176.312, 252.349 177.952 C 253.145 178.751, 253.481 185.330, 253.439 199.303 C 253.387 216.340, 253.105 220.065, 251.640 223.111 C 248.629 229.373, 241.672 230.907, 237.365 226.260 C 234.949 223.653, 234.759 223.609, 233.481 225.357 C 229.396 230.944, 240.509 234.223, 249.576 230.105 C 256.235 227.080, 257.376 223.538, 257.985 204 C 258.570 185.243, 257.581 185.243, 265.992 204 C 275.298 224.755, 284.726 237.108, 292.353 238.538 C 294.494 238.940, 297.628 238.665, 300.146 237.855 C 305.025 236.285, 306.495 234.127, 302.262 234.748 C 298.743 235.265, 294.740 232.237, 290.864 226.125 C 288.049 221.686, 288 221.359, 288.006 207.054 C 288.014 187.475, 289.064 181.296, 292.988 177.750 C 294.713 176.191, 297.192 175, 298.711 175 C 300.270 175, 302.595 176.151, 304.270 177.750 C 307.018 180.376, 307.210 180.416, 308.506 178.653 C 310.338 176.158, 309.455 174.354, 305.771 173.070 C 302.208 171.828, 298.683 171.818, 294.604 173.038 M 210.222 175.470 C 200.637 178.463, 195.180 186.192, 197.943 192.862 C 200.447 198.907, 209.406 199.474, 211.431 193.716 C 212.187 191.565, 212.035 190.606, 210.728 189.300 C 209.300 187.871, 208.708 187.819, 206.625 188.933 C 203.616 190.543, 202 189.656, 202 186.393 C 202 183.262, 206.154 179.328, 210.819 178.039 C 216.931 176.352, 216.937 176.377, 217.233 204.822 L 217.500 230.426 220.719 231.349 C 223.196 232.059, 224.520 231.890, 226.469 230.613 L 229 228.954 229 202.512 C 229 177.393, 228.903 176.019, 227.066 175.035 C 224.416 173.617, 215.410 173.850, 210.222 175.470 M 321.994 174.934 C 313.470 177.527, 305.856 185.248, 303.362 193.828 C 301.347 200.757, 301.896 212.996, 304.445 218 C 309.076 227.090, 316.087 231.280, 326.841 231.385 L 334.183 231.456 333.563 235.333 C 332.677 240.871, 330.415 244.734, 327.033 246.483 C 322.680 248.734, 320.196 248.350, 316.738 244.892 C 313.822 241.976, 313.550 241.895, 312.315 243.583 C 310.471 246.106, 310.635 246.715, 313.706 248.727 C 319.196 252.323, 333.045 250.105, 338.831 244.702 C 343.613 240.237, 344.384 237.347, 344.815 222.250 C 345.222 208.007, 345.224 208, 347.611 208 C 349.333 208, 350 207.442, 350 206 C 350 204.116, 349.333 204, 338.500 204 C 327.667 204, 327 204.116, 327 206 C 327 207.619, 327.667 208, 330.500 208 L 334 208 334 217.500 L 334 227 329.077 227 C 323.008 227, 318.904 223.961, 317.174 218.186 C 313.144 204.735, 315.499 189.615, 322.864 181.649 C 328.892 175.130, 333.310 175.818, 335.581 183.630 C 337.389 189.849, 338.915 190.941, 342.508 188.587 C 347.604 185.248, 344.954 177.821, 337.685 175.067 C 334.502 173.861, 325.766 173.787, 321.994 174.934 M 146.667 255.667 C 145.597 256.736, 145.899 267, 147 267 C 147.550 267, 148 266.129, 148 265.063 C 148 263.628, 148.841 263.022, 151.250 262.723 L 154.500 262.320 151.250 262.160 C 148.493 262.024, 148 261.621, 148 259.500 C 148 257.400, 148.471 257, 150.941 257 C 152.559 257, 154.160 256.550, 154.500 256 C 155.188 254.886, 147.763 254.570, 146.667 255.667 M 162 257 C 158.092 260.908, 160.635 267, 166.174 267 C 171.541 267, 174.100 259.584, 169.777 256.557 C 166.786 254.462, 164.403 254.597, 162 257 M 180.223 256.557 C 175.892 259.590, 178.451 267, 183.829 267 C 187.966 267, 191.366 261.591, 189.235 258.400 C 188.421 257.181, 184.606 255, 183.288 255 C 182.824 255, 181.445 255.701, 180.223 256.557 M 196 261 L 196 267 199.477 267 C 205.976 267, 208.247 258.801, 202.477 256.171 C 196.987 253.670, 196 254.406, 196 261 M 212.320 261 C 212.320 264.575, 212.502 266.038, 212.723 264.250 C 212.945 262.462, 212.945 259.538, 212.723 257.750 C 212.502 255.963, 212.320 257.425, 212.320 261 M 220 261 L 220 267 224.250 266.832 L 228.500 266.664 224.750 266.272 C 221.840 265.967, 221 265.445, 221 263.940 C 221 262.442, 221.741 261.973, 224.250 261.882 L 227.500 261.763 224.512 261.124 C 222.805 260.759, 221.381 259.738, 221.189 258.742 C 220.920 257.348, 221.568 257, 224.427 257 C 226.392 257, 228 256.550, 228 256 C 228 255.450, 226.200 255, 224 255 L 220 255 220 261 M 235.250 255.662 C 232.633 256.718, 233.948 260.080, 237.569 261.593 C 241.817 263.368, 241.569 265.560, 237.143 265.353 C 235.415 265.271, 234 265.636, 234 266.163 C 234 266.690, 235.688 266.981, 237.750 266.810 C 240.773 266.560, 241.562 266.060, 241.822 264.229 C 242.077 262.437, 241.392 261.644, 238.572 260.466 C 233.940 258.530, 234.018 257.004, 238.750 256.985 C 241.539 256.973, 242.116 256.721, 241 256 C 239.400 254.966, 237.284 254.842, 235.250 255.662 M 398.155 257.604 C 396.574 258.711, 396 260.154, 396 263.019 C 396 268.513, 392.614 276.923, 388.438 281.801 C 375.702 296.681, 339.710 300.931, 272.500 295.491 C 262.050 294.645, 240.450 292.637, 224.500 291.028 C 167.244 285.251, 130.177 284.803, 101.073 289.533 C 83.702 292.357, 58.355 302.688, 61.379 305.712 C 61.698 306.031, 66.580 304.464, 72.229 302.229 C 91.328 294.674, 109.951 292.002, 143.517 292.001 C 168.657 292, 185.321 293.089, 235.500 298.012 C 257.500 300.171, 283.150 302.397, 292.500 302.959 C 325.312 304.931, 357.083 303.927, 370.500 300.492 C 388.865 295.792, 402.599 282.639, 404.616 267.821 C 405.787 259.217, 402.737 254.395, 398.155 257.604 M 162.039 258.928 C 160.009 262.721, 164.144 267.063, 167.882 265.063 C 172.328 262.684, 171.001 257, 166 257 C 164.131 257, 162.697 257.698, 162.039 258.928 M 180.200 258.200 C 176.930 261.470, 181.783 267.257, 185.933 265.036 C 189.795 262.969, 187.987 257, 183.500 257 C 182.345 257, 180.860 257.540, 180.200 258.200 M 197 261.031 C 197 265.524, 198.594 266.823, 201.922 265.042 C 205.899 262.913, 203.971 257, 199.300 257 C 197.280 257, 197 257.491, 197 261.031 M 316 266.500 C 316 267.325, 316.450 268, 317 268 C 317.550 268, 318 267.325, 318 266.500 C 318 265.675, 317.550 265, 317 265 C 316.450 265, 316 265.675, 316 266.500 M 331.261 267.096 C 329.479 267.622, 327.072 269.337, 325.911 270.907 C 324.562 272.731, 321.307 274.741, 316.898 276.470 C 308.746 279.669, 300.277 286.674, 301.310 289.365 C 301.875 290.838, 302.940 290.355, 308.633 286.046 C 312.296 283.273, 317.590 279.881, 320.397 278.510 C 324.807 276.356, 326.009 276.158, 329.250 277.055 C 334.473 278.502, 342 275.328, 342 271.679 C 342 267.425, 337.154 265.357, 331.261 267.096 M 346.500 269 C 345.663 270.354, 346.792 272, 348.559 272 C 349.352 272, 350 271.100, 350 270 C 350 267.930, 347.587 267.240, 346.500 269 M 411.099 269.381 C 410.468 270.141, 409.266 273.399, 408.426 276.621 C 405.624 287.379, 398.657 295.610, 388.580 300.068 C 386.061 301.182, 384 302.273, 384 302.493 C 384 303.031, 393.990 300.049, 396.500 298.761 C 397.600 298.197, 400.446 296.162, 402.825 294.239 C 411.132 287.524, 418.177 273.328, 415.064 269.577 C 413.456 267.639, 412.580 267.596, 411.099 269.381 M 336.717 272.616 C 336.379 272.955, 334.616 273.584, 332.801 274.014 C 330.068 274.661, 329.930 274.807, 332 274.862 C 333.375 274.899, 335.625 274.286, 337 273.500 C 338.375 272.714, 339.012 272.055, 338.417 272.035 C 337.821 272.016, 337.056 272.277, 336.717 272.616 M 360.214 273.066 C 357.857 273.529, 353.231 275.279, 349.934 276.954 C 346.638 278.629, 342.467 280, 340.666 280 C 338.733 280, 335.420 281.250, 332.580 283.051 C 327.315 286.390, 326.901 288.137, 332 285.500 C 336.672 283.084, 336.662 284.260, 331.989 286.886 C 329.795 288.119, 328 289.549, 328 290.064 C 328 291.384, 328.566 291.262, 333.040 288.980 C 335.218 287.868, 337 287.182, 337 287.454 C 337 287.726, 335.538 288.725, 333.750 289.674 C 331.276 290.987, 330.915 291.488, 332.238 291.771 C 334.690 292.295, 341.593 288.189, 342.832 285.470 C 344.286 282.279, 352.532 279.273, 367.750 276.388 C 370.188 275.926, 370.906 273, 368.582 273 C 367.802 273, 366.564 272.825, 365.832 272.612 C 365.099 272.399, 362.571 272.603, 360.214 273.066 M 116 277.090 C 103.486 278.138, 88.223 282.060, 75.642 287.461 C 71.244 289.349, 71.217 290.629, 75.611 288.956 C 86.806 284.694, 106.074 281.517, 127.823 280.347 C 134.520 279.987, 140 279.320, 140 278.865 C 140 277, 127.826 276.100, 116 277.090 M 323 281.417 C 323 282.288, 323.712 283, 324.583 283 C 326.349 283, 326.042 280.847, 324.188 280.229 C 323.534 280.011, 323 280.546, 323 281.417 M 75 305.522 C 75 306.770, 83.636 323.061, 88.187 330.399 C 102.484 353.449, 125.764 376.458, 149.526 391.021 C 166.919 401.682, 188.932 410.350, 210.500 415.031 C 225.917 418.378, 260.880 418.949, 278 416.135 C 337.501 406.353, 389.027 368.646, 415.885 315.229 C 418.148 310.728, 420 306.584, 420 306.022 C 420 305.439, 417.405 305, 413.953 305 C 408.389 305, 407.787 305.219, 406.403 307.750 C 393.957 330.510, 387.136 339.932, 372.534 354.534 C 356.556 370.511, 341.266 381.198, 321.500 390.200 C 296.320 401.668, 274.397 406.397, 247 406.270 C 199.340 406.049, 155.922 387.901, 122.774 354.345 C 108.438 339.833, 99.183 327.210, 91.017 311.034 L 87.971 305 81.486 305 C 77.919 305, 75 305.235, 75 305.522 M 103.434 306.750 C 104.988 310.943, 113.971 324.726, 120.075 332.282 C 144.860 362.963, 179.726 383.979, 217.900 391.245 C 233.317 394.180, 261.457 394.364, 276.500 391.628 C 320.915 383.551, 361.469 356.719, 385.522 319.497 C 388.366 315.095, 391.449 310.032, 392.372 308.247 C 394.030 305.040, 394.023 305, 391.759 305 C 390.029 305, 388.637 306.409, 386.077 310.750 C 367.074 342.979, 337.192 367.877, 302.497 380.388 C 281.973 387.789, 257.240 390.966, 234.734 389.092 C 183.288 384.807, 139.038 357.385, 111.460 312.697 C 108.148 307.330, 106.116 305, 104.748 305 C 103.299 305, 102.956 305.458, 103.434 306.750" stroke="none" fill="#1e1c14" fill-rule="evenodd"/><path d="M 0 250.002 L 0 500.004 250.250 499.752 L 500.500 499.500 500.752 249.750 L 501.004 0 250.502 0 L 0 0 0 250.002 M 0.492 250.500 C 0.492 388, 0.608 444.101, 0.750 375.170 C 0.892 306.238, 0.892 193.738, 0.750 125.170 C 0.608 56.601, 0.492 113, 0.492 250.500 M 10 251 L 10 491 250 491 L 490 491 490 251 L 490 11 250 11 L 10 11 10 251 M 11 251 L 11 490 250 490 L 489 490 489 251 L 489 12 250 12 L 11 12 11 251 M 248.748 16.750 L 481.996 17.004 482.250 250.252 L 482.504 483.500 482.752 249.750 L 483 16 249.250 16.248 L 15.500 16.496 248.748 16.750 M 222 43.622 C 202.479 46.256, 181.176 52.870, 163.370 61.825 C 130.195 78.511, 102.269 105.003, 84.127 137 C 78.823 146.356, 70 165.788, 70 168.116 C 70 168.602, 72.925 169, 76.500 169 C 80.612 169, 83 168.591, 83 167.885 C 83 165.655, 91.079 148.645, 96.159 140.181 C 110.931 115.567, 133.080 93.247, 157 78.870 C 184.063 62.604, 215.422 54.013, 247.761 54.004 C 310.812 53.987, 366.626 85.840, 399.610 140.664 C 402.974 146.254, 407.457 154.916, 409.573 159.914 L 413.420 169 419.696 169 L 425.972 169 423.841 163.250 C 410.625 127.596, 385.087 95.766, 351.373 72.932 C 335.528 62.201, 314.912 53.101, 294 47.610 C 273.564 42.243, 244.254 40.620, 222 43.622 M 234 66.529 C 233.175 66.692, 228.450 67.363, 223.500 68.020 C 200.740 71.040, 177.442 80.117, 156.294 94.202 C 143.223 102.907, 123.533 122.180, 114.297 135.308 C 109.153 142.619, 96 166.425, 96 168.424 C 96 168.741, 97.013 168.998, 98.250 168.996 C 99.964 168.993, 100.928 167.953, 102.297 164.623 C 105.151 157.682, 113.718 143.162, 119.775 135 C 131.560 119.120, 149.335 103.074, 166.696 92.644 C 206.157 68.935, 254.809 63.792, 299 78.658 C 312.287 83.127, 329.826 92.160, 341.768 100.684 C 362.629 115.574, 382.321 139.215, 392.632 161.750 C 395.210 167.383, 396.416 169, 398.042 169 C 400.787 169, 400.304 167.455, 393.334 153.935 C 365.672 100.277, 307.834 65.516, 247.216 66.116 C 240.772 66.180, 234.825 66.366, 234 66.529 M 216.701 126.632 C 215.365 127.969, 216.008 131.789, 217.678 132.430 C 220.173 133.387, 222.768 130.441, 221.376 128.231 C 220.184 126.338, 217.808 125.525, 216.701 126.632 M 217.688 127.646 C 216.272 129.061, 217.073 131, 219.073 131 C 220.471 131, 221.041 130.457, 220.823 129.333 C 220.466 127.492, 218.759 126.574, 217.688 127.646 M 199.389 130.430 C 198.393 133.025, 199.788 135.169, 202.246 134.820 C 203.898 134.585, 204.500 133.833, 204.500 132 C 204.500 130.167, 203.898 129.415, 202.246 129.180 C 200.893 128.988, 199.750 129.488, 199.389 130.430 M 232.503 130.991 C 231.703 133.512, 232.606 135, 234.937 135 C 237.746 135, 239.544 132.360, 238 130.500 C 236.236 128.374, 233.249 128.641, 232.503 130.991 M 200.500 131 C 199.663 132.354, 200.792 134, 202.559 134 C 203.352 134, 204 133.100, 204 132 C 204 129.930, 201.587 129.240, 200.500 131 M 233.500 131 C 232.663 132.354, 233.792 134, 235.559 134 C 236.352 134, 237 133.100, 237 132 C 237 129.930, 234.587 129.240, 233.500 131 M 206.205 135.466 C 205.138 136.822, 204.034 137.701, 203.751 137.417 C 202.629 136.296, 197.797 138.380, 196.330 140.618 C 193.976 144.212, 195.369 149.113, 200.284 154.521 C 204.215 158.846, 204.690 159.086, 207.315 158.080 C 210.893 156.708, 225.418 156.677, 230.007 158.031 C 233.366 159.023, 233.644 158.899, 237.250 154.781 C 242.294 149.023, 243.700 144.718, 241.590 141.497 C 239.806 138.774, 236.610 136.772, 234.733 137.203 C 234.049 137.360, 232.479 136.479, 231.244 135.244 C 228.756 132.756, 224.552 132.336, 220.520 134.173 C 218.551 135.070, 217.670 135.070, 216.773 134.173 C 216.128 133.528, 213.923 133, 211.873 133 C 209.101 133, 207.648 133.633, 206.205 135.466 M 207.655 135.829 C 205.221 138.518, 205.625 142.704, 209.008 149.854 C 211.265 154.626, 212.406 156.058, 213.589 155.604 C 214.455 155.272, 215.802 155, 216.582 155 C 217.706 155, 218 153.039, 218 145.535 C 218 137.201, 217.769 135.947, 216.066 135.035 C 213.114 133.455, 209.494 133.797, 207.655 135.829 M 221.750 135.080 C 220.279 135.937, 220 137.604, 220 145.550 C 220 153.041, 220.294 155, 221.418 155 C 222.198 155, 223.458 155.238, 224.217 155.530 C 225.952 156.196, 229.412 150.224, 231.041 143.754 C 232.065 139.685, 232.001 138.651, 230.595 136.504 C 228.843 133.831, 224.967 133.207, 221.750 135.080 M 197.413 141.493 C 195.247 144.799, 196.162 148.066, 200.642 153.025 C 204.185 156.947, 206.271 157.749, 208.783 156.155 C 209.784 155.520, 209.511 154.150, 207.543 149.921 C 206.155 146.939, 205.015 143.262, 205.010 141.750 C 205.001 139.368, 204.602 139, 202.023 139 C 199.953 139, 198.548 139.760, 197.413 141.493 M 232.699 142.470 C 232.389 144.378, 231.016 148.169, 229.647 150.893 C 227.035 156.095, 227.368 157, 231.895 157 C 235.425 157, 241 149.204, 241 144.266 C 241 140.687, 239.376 139, 235.931 139 C 233.660 139, 233.178 139.517, 232.699 142.470 M 213.351 160.015 C 203.332 161.459, 204.261 163.633, 215.340 164.667 C 221.928 165.282, 232.438 163.518, 231.474 161.959 C 231.188 161.495, 228.826 160.827, 226.227 160.474 C 223.627 160.121, 220.825 159.706, 220 159.552 C 219.175 159.399, 216.183 159.607, 213.351 160.015 M 210.167 161.875 C 208.164 163.145, 218.027 164.198, 224.224 163.376 C 228.146 162.856, 228.956 162.491, 227.474 161.912 C 224.778 160.858, 211.814 160.831, 210.167 161.875 M 188.460 172.064 C 183.985 173.366, 178.235 178.716, 171.483 187.861 L 165.500 195.965 165.226 186.232 C 164.905 174.848, 164.298 174, 156.468 174 C 141.450 174, 130.075 183.525, 133.943 192.862 C 136.447 198.907, 145.406 199.474, 147.431 193.716 C 148.187 191.565, 148.035 190.606, 146.728 189.300 C 145.300 187.871, 144.708 187.819, 142.625 188.933 C 139.616 190.543, 138 189.656, 138 186.393 C 138 183.262, 142.154 179.328, 146.819 178.039 C 152.931 176.352, 152.937 176.377, 153.233 204.822 L 153.500 230.426 156.719 231.349 C 159.189 232.057, 160.519 231.890, 162.440 230.631 C 164.881 229.032, 164.951 228.653, 165.222 215.493 C 165.375 208.068, 165.857 201.883, 166.293 201.747 C 166.729 201.611, 169.024 206.061, 171.392 211.635 C 179.024 229.594, 184.950 238.427, 191.684 241.880 C 194.919 243.539, 202.546 243.239, 206.782 241.287 L 210.500 239.573 206.280 239.231 C 202.780 238.946, 201.461 238.188, 198.551 234.788 C 194.559 230.125, 188.569 218.887, 180.540 201 L 175.017 188.695 179.608 183.322 C 182.133 180.367, 185.504 177.274, 187.099 176.449 C 189.691 175.108, 190.323 175.116, 193.029 176.515 C 194.696 177.377, 196.496 177.812, 197.029 177.482 C 198.687 176.458, 198.097 173.122, 196.066 172.035 C 193.833 170.840, 192.654 170.845, 188.460 172.064 M 294.604 173.038 C 290.524 174.259, 286.162 178.758, 284.999 182.943 C 284.456 184.899, 283.970 192.575, 283.920 200 L 283.830 213.500 275.073 195.500 C 270.258 185.600, 265.533 176.851, 264.575 176.058 C 262.178 174.074, 251.902 173.488, 246.425 175.021 C 237.823 177.429, 232.182 186.196, 234.943 192.862 C 237.447 198.907, 246.406 199.474, 248.431 193.716 C 249.768 189.915, 247.288 187.240, 244.039 188.979 C 238.539 191.923, 236.822 185.010, 241.976 180.674 C 245.549 177.667, 250.713 176.312, 252.349 177.952 C 253.145 178.751, 253.481 185.330, 253.439 199.303 C 253.387 216.340, 253.105 220.065, 251.640 223.111 C 248.629 229.373, 241.672 230.907, 237.365 226.260 C 234.949 223.653, 234.759 223.609, 233.481 225.357 C 229.396 230.944, 240.509 234.223, 249.576 230.105 C 256.235 227.080, 257.376 223.538, 257.985 204 C 258.570 185.243, 257.581 185.243, 265.992 204 C 275.298 224.755, 284.726 237.108, 292.353 238.538 C 294.494 238.940, 297.628 238.665, 300.146 237.855 C 305.025 236.285, 306.495 234.127, 302.262 234.748 C 298.743 235.265, 294.740 232.237, 290.864 226.125 C 288.049 221.686, 288 221.359, 288.006 207.054 C 288.014 187.475, 289.064 181.296, 292.988 177.750 C 294.713 176.191, 297.192 175, 298.711 175 C 300.270 175, 302.595 176.151, 304.270 177.750 C 307.018 180.376, 307.210 180.416, 308.506 178.653 C 310.338 176.158, 309.455 174.354, 305.771 173.070 C 302.208 171.828, 298.683 171.818, 294.604 173.038 M 210.222 175.470 C 200.637 178.463, 195.180 186.192, 197.943 192.862 C 200.447 198.907, 209.406 199.474, 211.431 193.716 C 212.187 191.565, 212.035 190.606, 210.728 189.300 C 209.300 187.871, 208.708 187.819, 206.625 188.933 C 203.616 190.543, 202 189.656, 202 186.393 C 202 183.262, 206.154 179.328, 210.819 178.039 C 216.931 176.352, 216.937 176.377, 217.233 204.822 L 217.500 230.426 220.719 231.349 C 223.196 232.059, 224.520 231.890, 226.469 230.613 L 229 228.954 229 202.512 C 229 177.393, 228.903 176.019, 227.066 175.035 C 224.416 173.617, 215.410 173.850, 210.222 175.470 M 321.994 174.934 C 313.470 177.527, 305.856 185.248, 303.362 193.828 C 301.347 200.757, 301.896 212.996, 304.445 218 C 309.076 227.090, 316.087 231.280, 326.841 231.385 L 334.183 231.456 333.563 235.333 C 332.677 240.871, 330.415 244.734, 327.033 246.483 C 322.680 248.734, 320.196 248.350, 316.738 244.892 C 313.822 241.976, 313.550 241.895, 312.315 243.583 C 310.471 246.106, 310.635 246.715, 313.706 248.727 C 319.196 252.323, 333.045 250.105, 338.831 244.702 C 343.613 240.237, 344.384 237.347, 344.815 222.250 C 345.222 208.007, 345.224 208, 347.611 208 C 349.333 208, 350 207.442, 350 206 C 350 204.116, 349.333 204, 338.500 204 C 327.667 204, 327 204.116, 327 206 C 327 207.619, 327.667 208, 330.500 208 L 334 208 334 217.500 L 334 227 329.077 227 C 323.008 227, 318.904 223.961, 317.174 218.186 C 313.144 204.735, 315.499 189.615, 322.864 181.649 C 328.892 175.130, 333.310 175.818, 335.581 183.630 C 337.389 189.849, 338.915 190.941, 342.508 188.587 C 347.604 185.248, 344.954 177.821, 337.685 175.067 C 334.502 173.861, 325.766 173.787, 321.994 174.934 M 146.667 255.667 C 145.597 256.736, 145.899 267, 147 267 C 147.550 267, 148 266.129, 148 265.063 C 148 263.628, 148.841 263.022, 151.250 262.723 L 154.500 262.320 151.250 262.160 C 148.493 262.024, 148 261.621, 148 259.500 C 148 257.400, 148.471 257, 150.941 257 C 152.559 257, 154.160 256.550, 154.500 256 C 155.188 254.886, 147.763 254.570, 146.667 255.667 M 162 257 C 158.092 260.908, 160.635 267, 166.174 267 C 171.541 267, 174.100 259.584, 169.777 256.557 C 166.786 254.462, 164.403 254.597, 162 257 M 180.223 256.557 C 175.892 259.590, 178.451 267, 183.829 267 C 187.966 267, 191.366 261.591, 189.235 258.400 C 188.421 257.181, 184.606 255, 183.288 255 C 182.824 255, 181.445 255.701, 180.223 256.557 M 196 261 L 196 267 199.477 267 C 205.976 267, 208.247 258.801, 202.477 256.171 C 196.987 253.670, 196 254.406, 196 261 M 212.320 261 C 212.320 264.575, 212.502 266.038, 212.723 264.250 C 212.945 262.462, 212.945 259.538, 212.723 257.750 C 212.502 255.963, 212.320 257.425, 212.320 261 M 220 261 L 220 267 224.250 266.832 L 228.500 266.664 224.750 266.272 C 221.840 265.967, 221 265.445, 221 263.940 C 221 262.442, 221.741 261.973, 224.250 261.882 L 227.500 261.763 224.512 261.124 C 222.805 260.759, 221.381 259.738, 221.189 258.742 C 220.920 257.348, 221.568 257, 224.427 257 C 226.392 257, 228 256.550, 228 256 C 228 255.450, 226.200 255, 224 255 L 220 255 220 261 M 235.250 255.662 C 232.633 256.718, 233.948 260.080, 237.569 261.593 C 241.817 263.368, 241.569 265.560, 237.143 265.353 C 235.415 265.271, 234 265.636, 234 266.163 C 234 266.690, 235.688 266.981, 237.750 266.810 C 240.773 266.560, 241.562 266.060, 241.822 264.229 C 242.077 262.437, 241.392 261.644, 238.572 260.466 C 233.940 258.530, 234.018 257.004, 238.750 256.985 C 241.539 256.973, 242.116 256.721, 241 256 C 239.400 254.966, 237.284 254.842, 235.250 255.662 M 398.155 257.604 C 396.574 258.711, 396 260.154, 396 263.019 C 396 268.513, 392.614 276.923, 388.438 281.801 C 375.702 296.681, 339.710 300.931, 272.500 295.491 C 262.050 294.645, 240.450 292.637, 224.500 291.028 C 167.244 285.251, 130.177 284.803, 101.073 289.533 C 83.702 292.357, 58.355 302.688, 61.379 305.712 C 61.698 306.031, 66.580 304.464, 72.229 302.229 C 91.328 294.674, 109.951 292.002, 143.517 292.001 C 168.657 292, 185.321 293.089, 235.500 298.012 C 257.500 300.171, 283.150 302.397, 292.500 302.959 C 325.312 304.931, 357.083 303.927, 370.500 300.492 C 388.865 295.792, 402.599 282.639, 404.616 267.821 C 405.787 259.217, 402.737 254.395, 398.155 257.604 M 162.039 258.928 C 160.009 262.721, 164.144 267.063, 167.882 265.063 C 172.328 262.684, 171.001 257, 166 257 C 164.131 257, 162.697 257.698, 162.039 258.928 M 180.200 258.200 C 176.930 261.470, 181.783 267.257, 185.933 265.036 C 189.795 262.969, 187.987 257, 183.500 257 C 182.345 257, 180.860 257.540, 180.200 258.200 M 197 261.031 C 197 265.524, 198.594 266.823, 201.922 265.042 C 205.899 262.913, 203.971 257, 199.300 257 C 197.280 257, 197 257.491, 197 261.031 M 316 266.500 C 316 267.325, 316.450 268, 317 268 C 317.550 268, 318 267.325, 318 266.500 C 318 265.675, 317.550 265, 317 265 C 316.450 265, 316 265.675, 316 266.500 M 331.261 267.096 C 329.479 267.622, 327.072 269.337, 325.911 270.907 C 324.562 272.731, 321.307 274.741, 316.898 276.470 C 308.746 279.669, 300.277 286.674, 301.310 289.365 C 301.875 290.838, 302.940 290.355, 308.633 286.046 C 312.296 283.273, 317.590 279.881, 320.397 278.510 C 324.807 276.356, 326.009 276.158, 329.250 277.055 C 334.473 278.502, 342 275.328, 342 271.679 C 342 267.425, 337.154 265.357, 331.261 267.096 M 346.500 269 C 345.663 270.354, 346.792 272, 348.559 272 C 349.352 272, 350 271.100, 350 270 C 350 267.930, 347.587 267.240, 346.500 269 M 411.099 269.381 C 410.468 270.141, 409.266 273.399, 408.426 276.621 C 405.624 287.379, 398.657 295.610, 388.580 300.068 C 386.061 301.182, 384 302.273, 384 302.493 C 384 303.031, 393.990 300.049, 396.500 298.761 C 397.600 298.197, 400.446 296.162, 402.825 294.239 C 411.132 287.524, 418.177 273.328, 415.064 269.577 C 413.456 267.639, 412.580 267.596, 411.099 269.381 M 336.717 272.616 C 336.379 272.955, 334.616 273.584, 332.801 274.014 C 330.068 274.661, 329.930 274.807, 332 274.862 C 333.375 274.899, 335.625 274.286, 337 273.500 C 338.375 272.714, 339.012 272.055, 338.417 272.035 C 337.821 272.016, 337.056 272.277, 336.717 272.616 M 360.214 273.066 C 357.857 273.529, 353.231 275.279, 349.934 276.954 C 346.638 278.629, 342.467 280, 340.666 280 C 338.733 280, 335.420 281.250, 332.580 283.051 C 327.315 286.390, 326.901 288.137, 332 285.500 C 336.672 283.084, 336.662 284.260, 331.989 286.886 C 329.795 288.119, 328 289.549, 328 290.064 C 328 291.384, 328.566 291.262, 333.040 288.980 C 335.218 287.868, 337 287.182, 337 287.454 C 337 287.726, 335.538 288.725, 333.750 289.674 C 331.276 290.987, 330.915 291.488, 332.238 291.771 C 334.690 292.295, 341.593 288.189, 342.832 285.470 C 344.286 282.279, 352.532 279.273, 367.750 276.388 C 370.188 275.926, 370.906 273, 368.582 273 C 367.802 273, 366.564 272.825, 365.832 272.612 C 365.099 272.399, 362.571 272.603, 360.214 273.066 M 116 277.090 C 103.486 278.138, 88.223 282.060, 75.642 287.461 C 71.244 289.349, 71.217 290.629, 75.611 288.956 C 86.806 284.694, 106.074 281.517, 127.823 280.347 C 134.520 279.987, 140 279.320, 140 278.865 C 140 277, 127.826 276.100, 116 277.090 M 323 281.417 C 323 282.288, 323.712 283, 324.583 283 C 326.349 283, 326.042 280.847, 324.188 280.229 C 323.534 280.011, 323 280.546, 323 281.417 M 75 305.522 C 75 306.770, 83.636 323.061, 88.187 330.399 C 102.484 353.449, 125.764 376.458, 149.526 391.021 C 166.919 401.682, 188.932 410.350, 210.500 415.031 C 225.917 418.378, 260.880 418.949, 278 416.135 C 337.501 406.353, 389.027 368.646, 415.885 315.229 C 418.148 310.728, 420 306.584, 420 306.022 C 420 305.439, 417.405 305, 413.953 305 C 408.389 305, 407.787 305.219, 406.403 307.750 C 393.957 330.510, 387.136 339.932, 372.534 354.534 C 356.556 370.511, 341.266 381.198, 321.500 390.200 C 296.320 401.668, 274.397 406.397, 247 406.270 C 199.340 406.049, 155.922 387.901, 122.774 354.345 C 108.438 339.833, 99.183 327.210, 91.017 311.034 L 87.971 305 81.486 305 C 77.919 305, 75 305.235, 75 305.522 M 103.434 306.750 C 104.988 310.943, 113.971 324.726, 120.075 332.282 C 144.860 362.963, 179.726 383.979, 217.900 391.245 C 233.317 394.180, 261.457 394.364, 276.500 391.628 C 320.915 383.551, 361.469 356.719, 385.522 319.497 C 388.366 315.095, 391.449 310.032, 392.372 308.247 C 394.030 305.040, 394.023 305, 391.759 305 C 390.029 305, 388.637 306.409, 386.077 310.750 C 367.074 342.979, 337.192 367.877, 302.497 380.388 C 281.973 387.789, 257.240 390.966, 234.734 389.092 C 183.288 384.807, 139.038 357.385, 111.460 312.697 C 108.148 307.330, 106.116 305, 104.748 305 C 103.299 305, 102.956 305.458, 103.434 306.750" stroke="none" fill="#fadb5b" fill-rule="evenodd"/></svg>