<svg xmlns="http://www.w3.org/2000/svg" width="1514" height="250" viewBox="0 0 1514 250" version="1.1"><path d="M 11.914 48.956 C 7.572 50.271, 4.485 52.793, 2.168 56.915 L -0.042 60.848 0.229 126.351 C 0.495 190.734, 0.535 191.902, 2.562 194.615 C 6.077 199.323, 9.594 201.302, 15.284 201.774 C 22.093 202.338, 27.822 199.632, 31.149 194.281 L 33.500 190.500 33.805 127.500 C 34.009 85.385, 33.761 63.302, 33.056 60.885 C 30.347 51.601, 20.855 46.246, 11.914 48.956 M 209.500 49.103 C 205.672 50.280, 202.701 52.802, 200.082 57.097 C 198.039 60.449, 198.007 61.481, 198.004 125.602 L 198 190.704 200.274 194.078 C 201.524 195.934, 204.066 198.476, 205.922 199.726 C 212.970 204.476, 224.561 201.656, 229.299 194.038 C 231.498 190.504, 231.500 190.435, 231.779 127.714 C 231.974 83.744, 231.723 63.683, 230.939 60.775 C 229.533 55.552, 224.594 50.536, 219.453 49.109 C 214.886 47.841, 213.608 47.840, 209.500 49.103" stroke="none" fill="#4fc3eb" fill-rule="evenodd"/><path d="M 110.914 0.956 C 106.582 2.268, 103.486 4.790, 101.189 8.877 L 99 12.772 99 125.738 L 99 238.704 101.274 242.078 C 104.829 247.354, 109.496 250, 115.247 250 C 121.785 250, 126.581 247.590, 129.839 242.667 L 132.500 238.647 132.799 127.573 C 133.002 52.204, 132.761 15.338, 132.049 12.885 C 129.358 3.608, 119.857 -1.755, 110.914 0.956 M 820.381 1.910 C 818.665 2.956, 816.753 5.271, 816.131 7.055 C 815.383 9.200, 815 20.908, 815 41.631 L 815 72.963 808.653 66.616 C 797.361 55.324, 783.630 49.584, 764.973 48.356 C 752.088 47.508, 741.487 49.666, 729.067 55.665 C 721.219 59.457, 718.280 61.592, 711.567 68.380 C 707.130 72.866, 701.960 79.154, 700.077 82.353 C 686.221 105.893, 685.434 139.540, 698.161 164.287 C 703.142 173.972, 716.131 187.748, 725 192.751 C 745.277 204.188, 771.110 204.990, 791.942 194.830 C 798.359 191.701, 802.137 188.960, 807.692 183.405 L 815 176.097 815 183.081 C 815 194.904, 818.561 200, 826.823 200 C 830.467 200, 831.769 199.431, 834.600 196.600 L 838 193.200 838 101.165 C 838 43.797, 837.633 8.164, 837.025 6.566 C 835.801 3.346, 830.443 0.007, 826.500 0.007 C 824.850 0.007, 822.096 0.863, 820.381 1.910 M 887.381 1.910 C 885.665 2.956, 883.753 5.271, 883.131 7.055 C 881.705 11.145, 881.543 160.641, 882.955 169.263 C 885.208 183.015, 893.221 193.600, 904.798 198.117 C 912.821 201.247, 930.619 201.941, 939.715 199.479 C 948.634 197.065, 952 194.070, 952 188.547 C 952 185.219, 951.392 183.663, 949.250 181.518 C 946.579 178.843, 946.300 178.787, 939.500 179.580 C 919.387 181.926, 909.499 177.655, 906.016 165.118 C 905.411 162.938, 905.009 143.313, 905.006 115.750 L 905 70 926.077 70 L 947.154 70 950.077 67.077 C 954.067 63.087, 954.069 58.229, 950.084 53.766 L 947.168 50.500 926.084 50.194 L 905 49.888 905 28.826 L 905 7.765 901.118 3.882 C 896.624 -0.611, 892.488 -1.205, 887.381 1.910 M 411.131 49.541 C 388.727 54.402, 370.359 72.167, 364.508 94.632 C 362.528 102.234, 362.252 190.264, 364.195 194.528 C 365.742 197.924, 369.851 200, 375.027 200 C 378.255 200, 379.791 199.363, 382.077 197.077 L 385 194.154 385.008 151.327 C 385.012 126.254, 385.450 105.819, 386.064 102.034 C 388.120 89.361, 397.019 77.674, 408.782 72.198 C 413.703 69.907, 415.830 69.534, 424.048 69.518 C 433.081 69.501, 434.006 69.702, 441.177 73.245 C 450.148 77.676, 454.979 82.625, 459.362 91.877 L 462.500 98.500 463 141 C 463.371 172.525, 463.825 184.068, 464.758 185.699 C 468.838 192.831, 479.668 192.874, 483.996 185.775 C 485.904 182.646, 485.993 180.714, 485.996 142.355 C 486 96.905, 486.359 94.237, 493.763 84.517 C 511.624 61.068, 547.261 64.987, 559.820 91.782 L 562.500 97.500 563 145 C 563.455 188.234, 563.658 192.733, 565.264 195.096 C 567.453 198.318, 571.015 200, 575.647 200 C 578.363 200, 580.011 199.189, 582.645 196.555 L 586.089 193.111 585.795 144.305 L 585.500 95.500 582.815 88.803 C 573.253 64.956, 552.691 49.766, 528 48.310 C 510.245 47.263, 494.785 53.158, 481.766 65.938 L 474.031 73.531 470.382 69.165 C 456.718 52.818, 432.695 44.862, 411.131 49.541 M 637.388 48.929 C 636.227 49.426, 634.314 51.057, 633.138 52.552 C 631.001 55.268, 631 55.313, 631 123.588 C 631 174.425, 631.306 192.577, 632.195 194.528 C 633.742 197.924, 637.851 200, 643.027 200 C 646.255 200, 647.791 199.363, 650.077 197.077 L 653 194.154 653 124.593 L 653 55.032 650.250 51.954 C 647.276 48.626, 641.350 47.232, 637.388 48.929 M 1294.129 49.126 C 1270.878 52.989, 1250.110 72.365, 1243.350 96.500 C 1241.938 101.540, 1241.601 109.051, 1241.247 143.423 C 1241.015 165.931, 1241.130 186.379, 1241.502 188.863 C 1241.985 192.086, 1243.128 194.328, 1245.490 196.690 C 1248.298 199.498, 1249.513 200, 1253.500 200 C 1257.512 200, 1258.698 199.502, 1261.600 196.600 L 1265 193.200 1265 150.649 C 1265 123.167, 1265.395 106.222, 1266.116 102.799 C 1268.803 90.039, 1276.860 79.656, 1288.535 73.908 C 1300.141 68.194, 1315.097 68.870, 1326.631 75.630 C 1332.545 79.095, 1339.693 87.110, 1342.820 93.782 L 1345.500 99.500 1346 145.500 C 1346.370 179.558, 1346.823 192.064, 1347.744 193.672 C 1351.113 199.558, 1358.014 201.596, 1364.033 198.483 C 1370.159 195.315, 1370.125 195.642, 1369.768 144.211 C 1369.448 98.206, 1369.408 97.405, 1367.121 91.224 C 1356.141 61.551, 1325.548 43.906, 1294.129 49.126 M 1441.760 50.496 C 1426.105 54.459, 1413.443 65.441, 1409.390 78.574 C 1408.554 81.283, 1407.854 87.186, 1407.835 91.692 C 1407.807 98.312, 1408.270 100.910, 1410.251 105.237 C 1416.464 118.808, 1425.258 124.237, 1456.150 133.575 C 1474.964 139.261, 1482.552 142.619, 1487.284 147.350 C 1496.930 156.997, 1492.649 172.973, 1478.794 179.031 C 1472.279 181.879, 1458.795 182.807, 1449.718 181.032 C 1441.041 179.335, 1429.802 174.838, 1420.983 169.534 C 1411.866 164.050, 1408.147 163.699, 1403.923 167.923 C 1401.618 170.228, 1401 171.736, 1401 175.055 C 1401 178.594, 1401.574 179.806, 1404.609 182.667 C 1409.750 187.516, 1426.834 195.551, 1438.523 198.618 C 1451.152 201.931, 1468.881 202.407, 1478.880 199.701 C 1502.416 193.332, 1514.886 177.408, 1513.818 155.084 C 1513.329 144.847, 1510.943 139.091, 1504.552 132.730 C 1497.485 125.697, 1488.917 121.445, 1468.526 114.852 C 1446.617 107.768, 1437.632 103.622, 1433.166 98.536 C 1427.059 91.581, 1429.366 79.479, 1437.926 73.555 C 1449.531 65.524, 1469.059 66.729, 1490 76.767 C 1494.125 78.744, 1498.904 80.371, 1500.620 80.381 C 1504.941 80.407, 1508.605 77.728, 1509.990 73.529 C 1510.978 70.536, 1510.876 69.409, 1509.330 66.244 C 1507.845 63.206, 1506.079 61.804, 1499.961 58.807 C 1486.681 52.301, 1476.379 49.815, 1461 49.404 C 1451.440 49.149, 1445.825 49.468, 1441.760 50.496 M 1039.500 51.480 C 1019.051 55.981, 1002.803 68.994, 994.159 87.790 C 988.493 100.110, 987.898 106.584, 988.217 152.459 L 988.500 193.155 992.235 196.578 C 998.417 202.242, 1006.856 201.046, 1010.506 193.989 C 1011.762 191.560, 1012 184.412, 1012 149.155 C 1012 110.205, 1012.141 106.754, 1013.976 100.813 C 1017.666 88.866, 1024.523 80.990, 1035.850 75.689 C 1041.295 73.142, 1043.977 72.574, 1053.136 72.034 C 1063.207 71.441, 1064.185 71.197, 1066.881 68.614 C 1068.477 67.085, 1070.051 64.493, 1070.379 62.855 C 1071.208 58.712, 1068.756 53.443, 1065.128 51.566 C 1061.374 49.625, 1048.128 49.580, 1039.500 51.480 M 1122.400 53.400 C 1117.836 57.964, 1117.646 63.453, 1121.889 68.202 C 1124.776 71.433, 1124.789 71.436, 1137.139 72.069 C 1149.952 72.726, 1154.659 73.970, 1162.284 78.714 C 1171.988 84.751, 1179.810 96.814, 1180.751 107.194 C 1181.041 110.387, 1181.082 113, 1180.842 113 C 1180.602 113, 1176.255 112.094, 1171.180 110.986 C 1157.319 107.961, 1138.933 106.735, 1126.453 108.005 C 1107.267 109.956, 1094.691 115.300, 1085.066 125.589 C 1076.489 134.757, 1074.551 140.265, 1074.523 155.552 C 1074.500 167.492, 1074.535 167.675, 1078.266 175.223 C 1086.419 191.719, 1105.474 201.965, 1128 201.965 C 1146.036 201.965, 1161.783 195.469, 1174.250 182.886 L 1182 175.064 1182 183.485 C 1182 193.041, 1183.189 196.529, 1187.145 198.575 C 1191.788 200.976, 1196.753 200.401, 1200.077 197.077 L 1203 194.154 1202.987 147.827 L 1202.973 101.500 1200.169 93.444 C 1196.608 83.215, 1191.720 75.864, 1183.024 67.661 C 1170.438 55.789, 1155.034 50.052, 1135.650 50.017 L 1125.800 50 1122.400 53.400 M 748 71.276 C 727.711 78.218, 715.895 93.388, 713.040 116.156 C 708.540 152.039, 731.078 181, 763.500 181 C 803.439 181, 828.177 136.716, 809.816 98.088 C 803.737 85.298, 788.755 73.255, 774.972 70.079 C 767.163 68.280, 755.205 68.810, 748 71.276 M 1122.459 126.395 C 1107.103 130.125, 1098.171 139.275, 1097.191 152.278 C 1096.291 164.222, 1101.205 172.514, 1112.187 177.585 C 1118.057 180.296, 1119.347 180.500, 1130.575 180.500 L 1142.651 180.500 1151.101 176.313 C 1162.088 170.868, 1171.446 161.482, 1176.496 150.841 C 1179.832 143.810, 1182.665 132.885, 1181.598 131.159 C 1180.951 130.111, 1173.194 128.400, 1160.500 126.505 C 1148.635 124.733, 1129.525 124.678, 1122.459 126.395" stroke="none" fill="#042c54" fill-rule="evenodd"/></svg>